<?xml version="1.0" encoding="iso-8859-1"?>
<!-- Generator: Adobe Illustrator 19.0.0, SVG Export Plug-In . SVG Version: 6.00 Build 0)  -->
<svg version="1.1" id="Capa_1" xmlns="http://www.w3.org/2000/svg" xmlns:xlink="http://www.w3.org/1999/xlink" x="0px" y="0px"
	 viewBox="0 0 512 512" style="enable-background:new 0 0 512 512;" xml:space="preserve">
<rect x="230.4" y="154.027" style="fill:#FC9D9A;" width="170.667" height="238.933"/>
<g>
	<rect x="230.4" y="392.96" style="fill:#F07A87;" width="170.667" height="102.4"/>
	<rect x="230.4" y="51.627" style="fill:#F07A87;" width="170.667" height="102.4"/>
</g>
<rect x="401.067" y="154.027" style="fill:#F9CDAD;" width="68.267" height="238.933"/>
<g>
	<rect x="401.067" y="392.96" style="fill:#DEBD9A;" width="68.267" height="102.4"/>
	<rect x="401.067" y="51.627" style="fill:#DEBD9A;" width="68.267" height="102.4"/>
</g>
<rect x="162.134" y="154.027" style="fill:#F9CDAD;" width="68.267" height="238.933"/>
<g>
	<rect x="162.134" y="392.96" style="fill:#DEBD9A;" width="68.267" height="102.4"/>
	<rect x="162.134" y="51.627" style="fill:#DEBD9A;" width="68.267" height="102.4"/>
</g>
<g>
	<rect x="187.734" y="77.227" style="fill:#E6E6E6;" width="17.067" height="17.067"/>
	<rect x="187.734" y="111.36" style="fill:#E6E6E6;" width="17.067" height="17.067"/>
	<rect x="187.734" y="179.627" style="fill:#E6E6E6;" width="17.067" height="17.067"/>
	<rect x="426.667" y="77.227" style="fill:#E6E6E6;" width="17.067" height="17.067"/>
	<rect x="426.667" y="111.36" style="fill:#E6E6E6;" width="17.067" height="17.067"/>
	<rect x="426.667" y="452.693" style="fill:#E6E6E6;" width="17.067" height="17.067"/>
	<rect x="426.667" y="418.56" style="fill:#E6E6E6;" width="17.067" height="17.067"/>
	<rect x="426.667" y="179.627" style="fill:#E6E6E6;" width="17.067" height="17.067"/>
	<rect x="426.667" y="222.293" style="fill:#E6E6E6;" width="17.067" height="17.067"/>
	<rect x="426.667" y="264.96" style="fill:#E6E6E6;" width="17.067" height="17.067"/>
	<rect x="426.667" y="307.627" style="fill:#E6E6E6;" width="17.067" height="17.067"/>
	<rect x="426.667" y="350.293" style="fill:#E6E6E6;" width="17.067" height="17.067"/>
</g>
<polygon style="fill:#D8445E;" points="290.134,222.293 290.134,307.627 358.4,264.96 "/>
<rect x="68.267" y="264.96" style="fill:#51575F;" width="128" height="76.8"/>
<path style="fill:#656D77;" d="M59.734,341.76H230.4c9.429,0,17.067,7.637,17.067,17.067v85.333c0,9.429-7.637,17.067-17.067,17.067
	H59.734c-9.429,0-17.067-7.637-17.067-17.067v-85.333C42.667,349.397,50.304,341.76,59.734,341.76z"/>
<rect x="93.867" y="461.227" style="fill:#51575F;" width="102.4" height="34.133"/>
<path style="fill:#FC9D9A;" d="M14.507,210.116L2.56,197.939c33.101-32.452,84.941-35.883,122.027-8.073l-10.24,13.653
	C84.002,180.762,41.592,183.569,14.507,210.116z"/>
<g>
	<circle style="fill:#92BAC0;" cx="68.267" cy="264.96" r="51.2"/>
	<circle style="fill:#92BAC0;" cx="196.267" cy="264.96" r="42.667"/>
</g>
<g>
	<rect x="187.734" y="256.427" style="fill:#406471;" width="17.067" height="17.067"/>
	<rect x="59.734" y="256.427" style="fill:#406471;" width="17.067" height="17.067"/>
</g>
<polygon style="fill:#656D77;" points="281.6,427.093 349.867,452.693 349.867,350.293 281.6,375.893 "/>
<g>
	<rect x="76.8" y="375.893" style="fill:#FDBB72;" width="68.267" height="34.133"/>
	<rect x="170.667" y="367.36" style="fill:#FDBB72;" width="17.067" height="17.067"/>
	<rect x="204.8" y="367.36" style="fill:#FDBB72;" width="17.067" height="17.067"/>
</g>
<rect x="128" y="299.093" style="fill:#92BAC0;" width="17.067" height="17.067"/>
<g>
	<rect x="0" y="358.827" style="fill:#FC9D9A;" width="17.067" height="17.067"/>
	<path style="fill:#FC9D9A;" d="M49.792,503.04C21.001,498.279-0.085,473.336,0,444.16v-51.2h17.067v51.2
		c-0.068,20.838,14.985,38.656,35.541,42.078L49.792,503.04z"/>
	<path style="fill:#FC9D9A;" d="M512,230.827h-17.067V43.093c0-9.429-7.637-17.067-17.067-17.067h-51.2V8.96h51.2
		C496.717,8.96,512,24.243,512,43.093V230.827z"/>
	<rect x="494.934" y="247.893" style="fill:#FC9D9A;" width="17.067" height="17.067"/>
</g>
<rect x="247.467" y="375.893" style="fill:#FDBB72;" width="34.133" height="51.2"/>
<g>
</g>
<g>
</g>
<g>
</g>
<g>
</g>
<g>
</g>
<g>
</g>
<g>
</g>
<g>
</g>
<g>
</g>
<g>
</g>
<g>
</g>
<g>
</g>
<g>
</g>
<g>
</g>
<g>
</g>
</svg>
